<?xml version="1.0" encoding="iso-8859-1"?>
<!-- Generator: Adobe Illustrator 16.0.0, SVG Export Plug-In . SVG Version: 6.00 Build 0)  -->
<!DOCTYPE svg PUBLIC "-//W3C//DTD SVG 1.1//EN" "http://www.w3.org/Graphics/SVG/1.1/DTD/svg11.dtd">
<svg version="1.1" id="Capa_1" xmlns="http://www.w3.org/2000/svg" xmlns:xlink="http://www.w3.org/1999/xlink" x="0px" y="0px"
	 width="474.629px" height="474.629px" viewBox="0 0 474.629 474.629" style="enable-background:new 0 0 474.629 474.629;"
	 xml:space="preserve">
<g>
	<g>
		<path d="M266.617,121.37V8.902c0-4.916-3.986-8.902-8.902-8.902h-40.796c-4.916,0-8.902,3.986-8.902,8.902v112.463
			c-32.26,12.1-54.257,43.339-54.257,78.198v266.166c0,4.916,3.986,8.9,8.902,8.9h149.305c4.916,0,8.902-3.984,8.902-8.9V199.563
			C320.869,164.706,298.875,133.469,266.617,121.37z M303.064,456.826h-131.5V199.563c0-29.225,19.649-55.212,47.784-63.199
			c3.83-1.087,6.473-4.584,6.473-8.563V17.804h22.992v110.001c0,3.979,2.643,7.477,6.473,8.562
			c28.131,7.987,47.779,33.973,47.779,63.194V456.826L303.064,456.826z"/>
		<path d="M194.467,206.074c-4.916,0-8.902,3.986-8.902,8.902v182.499c0,4.916,3.986,8.9,8.902,8.9h83.09
			c4.918,0,8.902-3.984,8.902-8.9V214.976c0-4.916-3.984-8.902-8.902-8.902H194.467z M268.654,388.572H203.37V223.878h65.284
			V388.572z"/>
	</g>
</g>
<g>
</g>
<g>
</g>
<g>
</g>
<g>
</g>
<g>
</g>
<g>
</g>
<g>
</g>
<g>
</g>
<g>
</g>
<g>
</g>
<g>
</g>
<g>
</g>
<g>
</g>
<g>
</g>
<g>
</g>
</svg>
