<?xml version="1.0" encoding="iso-8859-1"?>
<!-- Generator: Adobe Illustrator 19.0.0, SVG Export Plug-In . SVG Version: 6.00 Build 0)  -->
<svg version="1.1" id="Layer_1" xmlns="http://www.w3.org/2000/svg" xmlns:xlink="http://www.w3.org/1999/xlink" x="0px" y="0px"
	 viewBox="0 0 511.999 511.999" style="enable-background:new 0 0 511.999 511.999;" xml:space="preserve">
<g>
	<g>
		<path d="M446.731,244.639v-44.422c9.462-3.399,16.249-12.457,16.249-23.074c0-10.792-7.015-19.971-16.722-23.235
			c-1.839-16.937-10.415-32.277-24.176-42.829L294.078,12.915C283.059,4.466,269.892,0,255.999,0
			c-13.893,0-27.061,4.466-38.079,12.915L89.917,111.078c-13.761,10.553-22.338,25.892-24.176,42.83
			c-9.707,3.263-16.722,12.442-16.722,23.235c0,10.617,6.787,19.676,16.249,23.075l0.002,44.422
			c-24.558,25.903-38.039,59.678-38.039,95.493c0,33.727,12.243,66.25,34.475,91.579l37.306,42.514v29.602
			c0,4.512,3.658,8.17,8.17,8.17h297.633c4.513,0,8.17-3.658,8.17-8.17v-29.602l37.306-42.514
			c22.232-25.33,34.475-57.853,34.475-91.579C484.767,304.321,471.286,270.545,446.731,244.639z M99.86,124.046l128.002-98.163
			c8.141-6.242,17.869-9.542,28.136-9.542c10.266,0,19.995,3.3,28.135,9.541l128.003,98.164
			c9.336,7.159,15.448,17.295,17.444,28.586H82.416C84.413,141.341,90.524,131.205,99.86,124.046z M73.529,168.973h364.94
			c4.506,0,8.17,3.665,8.17,8.17c0,4.506-3.665,8.17-8.17,8.17H73.529c-4.506,0-8.17-3.665-8.17-8.17
			C65.359,172.637,69.023,168.973,73.529,168.973z M438.009,420.936l-36.895,42.045h-228.57c-4.512,0-8.17,3.658-8.17,8.17
			c0,4.512,3.658,8.17,8.17,8.17h224.1v16.337H115.352v-16.337h24.511c4.512,0,8.17-3.658,8.17-8.17c0-4.512-3.658-8.17-8.17-8.17
			h-28.981l-36.895-42.045c-19.614-22.347-30.416-51.043-30.416-80.801c0-32.607,12.665-63.298,35.663-86.42
			c1.575-1.584,2.401-3.703,2.377-5.853c-0.002-1.422-0.003-27.408-0.003-46.207H430.39v46.298c0,2.159,0.854,4.23,2.377,5.762
			c22.996,23.124,35.66,53.815,35.66,86.421C468.427,369.892,457.625,398.589,438.009,420.936z"/>
	</g>
</g>
<g>
	<g>
		<path d="M405.879,239.782H106.119c-4.512,0-8.17,3.658-8.17,8.17s3.658,8.17,8.17,8.17h299.761c4.513,0,8.17-3.658,8.17-8.17
			S410.391,239.782,405.879,239.782z"/>
	</g>
</g>
<g>
	<g>
		<circle cx="203.831" cy="84.882" r="8.17"/>
	</g>
</g>
<g>
	<g>
		<circle cx="171.15" cy="117.565" r="8.17"/>
	</g>
</g>
<g>
	<g>
		<circle cx="340.852" cy="117.565" r="8.17"/>
	</g>
</g>
<g>
</g>
<g>
</g>
<g>
</g>
<g>
</g>
<g>
</g>
<g>
</g>
<g>
</g>
<g>
</g>
<g>
</g>
<g>
</g>
<g>
</g>
<g>
</g>
<g>
</g>
<g>
</g>
<g>
</g>
</svg>
